<mxfile host="app.diagrams.net" modified="2024-04-16T14:35:48.159Z" agent="Mozilla/5.0 (X11; Linux x86_64; rv:109.0) Gecko/20100101 Firefox/115.0" etag="sea3P9eFqZwytRNwoClm" version="24.0.5" type="github">
  <diagram name="Page-1" id="o0QanbhsqBCeWXjGLMx0">
    <mxGraphModel dx="1434" dy="795" grid="1" gridSize="10" guides="1" tooltips="1" connect="1" arrows="1" fold="1" page="1" pageScale="1" pageWidth="850" pageHeight="1100" math="0" shadow="0">
      <root>
        <mxCell id="0" />
        <mxCell id="1" parent="0" />
        <mxCell id="zB--o1MgACli6-uQqWRJ-481" value="" style="group" parent="1" vertex="1" connectable="0">
          <mxGeometry x="10" y="20" width="830" height="350" as="geometry" />
        </mxCell>
        <mxCell id="zB--o1MgACli6-uQqWRJ-384" value="" style="rounded=0;whiteSpace=wrap;html=1;" parent="zB--o1MgACli6-uQqWRJ-481" vertex="1">
          <mxGeometry x="20" width="790" height="350" as="geometry" />
        </mxCell>
        <mxCell id="zB--o1MgACli6-uQqWRJ-359" value="" style="group" parent="zB--o1MgACli6-uQqWRJ-481" vertex="1" connectable="0">
          <mxGeometry x="240" y="209" width="30" height="62" as="geometry" />
        </mxCell>
        <mxCell id="zB--o1MgACli6-uQqWRJ-360" value="" style="rounded=0;whiteSpace=wrap;html=1;" parent="zB--o1MgACli6-uQqWRJ-359" vertex="1">
          <mxGeometry width="30" height="62" as="geometry" />
        </mxCell>
        <mxCell id="zB--o1MgACli6-uQqWRJ-361" value="" style="triangle;whiteSpace=wrap;html=1;rotation=90;" parent="zB--o1MgACli6-uQqWRJ-359" vertex="1">
          <mxGeometry x="3" width="24" height="29.176470588235297" as="geometry" />
        </mxCell>
        <mxCell id="zB--o1MgACli6-uQqWRJ-385" value="" style="group" parent="zB--o1MgACli6-uQqWRJ-481" vertex="1" connectable="0">
          <mxGeometry x="690" y="271.25" width="30" height="62" as="geometry" />
        </mxCell>
        <mxCell id="zB--o1MgACli6-uQqWRJ-386" style="edgeStyle=orthogonalEdgeStyle;rounded=0;orthogonalLoop=1;jettySize=auto;html=1;exitX=1;exitY=0.5;exitDx=0;exitDy=0;endArrow=none;endFill=0;" parent="zB--o1MgACli6-uQqWRJ-385" source="zB--o1MgACli6-uQqWRJ-388" edge="1">
          <mxGeometry relative="1" as="geometry">
            <mxPoint x="130" y="30.75" as="targetPoint" />
          </mxGeometry>
        </mxCell>
        <mxCell id="zB--o1MgACli6-uQqWRJ-387" style="edgeStyle=orthogonalEdgeStyle;rounded=0;orthogonalLoop=1;jettySize=auto;html=1;exitX=0;exitY=0.5;exitDx=0;exitDy=0;endArrow=none;endFill=0;" parent="zB--o1MgACli6-uQqWRJ-385" source="zB--o1MgACli6-uQqWRJ-388" edge="1">
          <mxGeometry relative="1" as="geometry">
            <mxPoint x="-630" y="30" as="targetPoint" />
          </mxGeometry>
        </mxCell>
        <mxCell id="zB--o1MgACli6-uQqWRJ-388" value="" style="rounded=0;whiteSpace=wrap;html=1;" parent="zB--o1MgACli6-uQqWRJ-385" vertex="1">
          <mxGeometry width="30" height="62" as="geometry" />
        </mxCell>
        <mxCell id="zB--o1MgACli6-uQqWRJ-389" value="" style="triangle;whiteSpace=wrap;html=1;rotation=90;" parent="zB--o1MgACli6-uQqWRJ-385" vertex="1">
          <mxGeometry x="3" width="24" height="29.176470588235297" as="geometry" />
        </mxCell>
        <mxCell id="zB--o1MgACli6-uQqWRJ-390" value="RGB_valid" style="text;html=1;align=center;verticalAlign=middle;whiteSpace=wrap;rounded=0;" parent="zB--o1MgACli6-uQqWRJ-481" vertex="1">
          <mxGeometry x="20" y="297.25" width="10" height="10" as="geometry" />
        </mxCell>
        <mxCell id="zB--o1MgACli6-uQqWRJ-391" value="Y_valid" style="text;html=1;align=center;verticalAlign=middle;resizable=0;points=[];autosize=1;strokeColor=none;fillColor=none;" parent="zB--o1MgACli6-uQqWRJ-481" vertex="1">
          <mxGeometry x="740" y="280" width="60" height="30" as="geometry" />
        </mxCell>
        <mxCell id="zB--o1MgACli6-uQqWRJ-392" value="" style="endArrow=none;html=1;rounded=0;" parent="zB--o1MgACli6-uQqWRJ-481" edge="1">
          <mxGeometry width="50" height="50" relative="1" as="geometry">
            <mxPoint y="50" as="sourcePoint" />
            <mxPoint x="100" y="50" as="targetPoint" />
          </mxGeometry>
        </mxCell>
        <mxCell id="zB--o1MgACli6-uQqWRJ-393" value="" style="endArrow=none;html=1;rounded=0;" parent="zB--o1MgACli6-uQqWRJ-481" edge="1">
          <mxGeometry width="50" height="50" relative="1" as="geometry">
            <mxPoint y="70" as="sourcePoint" />
            <mxPoint x="100" y="70" as="targetPoint" />
          </mxGeometry>
        </mxCell>
        <mxCell id="zB--o1MgACli6-uQqWRJ-394" value="" style="endArrow=none;html=1;rounded=0;" parent="zB--o1MgACli6-uQqWRJ-481" edge="1">
          <mxGeometry width="50" height="50" relative="1" as="geometry">
            <mxPoint y="140" as="sourcePoint" />
            <mxPoint x="100" y="140" as="targetPoint" />
          </mxGeometry>
        </mxCell>
        <mxCell id="zB--o1MgACli6-uQqWRJ-395" value="" style="endArrow=none;html=1;rounded=0;" parent="zB--o1MgACli6-uQqWRJ-481" edge="1">
          <mxGeometry width="50" height="50" relative="1" as="geometry">
            <mxPoint y="160" as="sourcePoint" />
            <mxPoint x="100" y="160" as="targetPoint" />
          </mxGeometry>
        </mxCell>
        <mxCell id="zB--o1MgACli6-uQqWRJ-396" value="" style="endArrow=none;html=1;rounded=0;" parent="zB--o1MgACli6-uQqWRJ-481" edge="1">
          <mxGeometry width="50" height="50" relative="1" as="geometry">
            <mxPoint y="230" as="sourcePoint" />
            <mxPoint x="100" y="230" as="targetPoint" />
          </mxGeometry>
        </mxCell>
        <mxCell id="zB--o1MgACli6-uQqWRJ-397" value="" style="endArrow=none;html=1;rounded=0;" parent="zB--o1MgACli6-uQqWRJ-481" edge="1">
          <mxGeometry width="50" height="50" relative="1" as="geometry">
            <mxPoint y="250" as="sourcePoint" />
            <mxPoint x="100" y="250" as="targetPoint" />
          </mxGeometry>
        </mxCell>
        <mxCell id="zB--o1MgACli6-uQqWRJ-398" value="R" style="text;html=1;align=center;verticalAlign=middle;whiteSpace=wrap;rounded=0;" parent="zB--o1MgACli6-uQqWRJ-481" vertex="1">
          <mxGeometry y="40" width="10" height="10" as="geometry" />
        </mxCell>
        <mxCell id="zB--o1MgACli6-uQqWRJ-399" value="G" style="text;html=1;align=center;verticalAlign=middle;whiteSpace=wrap;rounded=0;" parent="zB--o1MgACli6-uQqWRJ-481" vertex="1">
          <mxGeometry y="130" width="10" height="10" as="geometry" />
        </mxCell>
        <mxCell id="zB--o1MgACli6-uQqWRJ-400" value="WR" style="text;html=1;align=center;verticalAlign=middle;whiteSpace=wrap;rounded=0;" parent="zB--o1MgACli6-uQqWRJ-481" vertex="1">
          <mxGeometry y="60" width="10" height="10" as="geometry" />
        </mxCell>
        <mxCell id="zB--o1MgACli6-uQqWRJ-401" value="WG" style="text;html=1;align=center;verticalAlign=middle;whiteSpace=wrap;rounded=0;" parent="zB--o1MgACli6-uQqWRJ-481" vertex="1">
          <mxGeometry y="150" width="10" height="10" as="geometry" />
        </mxCell>
        <mxCell id="zB--o1MgACli6-uQqWRJ-402" value="&lt;div&gt;B&lt;/div&gt;" style="text;html=1;align=center;verticalAlign=middle;whiteSpace=wrap;rounded=0;" parent="zB--o1MgACli6-uQqWRJ-481" vertex="1">
          <mxGeometry y="220" width="10" height="10" as="geometry" />
        </mxCell>
        <mxCell id="zB--o1MgACli6-uQqWRJ-403" value="WB" style="text;html=1;align=center;verticalAlign=middle;whiteSpace=wrap;rounded=0;" parent="zB--o1MgACli6-uQqWRJ-481" vertex="1">
          <mxGeometry y="240" width="10" height="10" as="geometry" />
        </mxCell>
        <mxCell id="zB--o1MgACli6-uQqWRJ-404" value="&lt;font style=&quot;font-size: 19px;&quot;&gt;*&lt;/font&gt;" style="ellipse;whiteSpace=wrap;html=1;aspect=fixed;" parent="zB--o1MgACli6-uQqWRJ-481" vertex="1">
          <mxGeometry x="100" y="20" width="80" height="80" as="geometry" />
        </mxCell>
        <mxCell id="zB--o1MgACli6-uQqWRJ-405" value="&lt;font style=&quot;font-size: 17px;&quot;&gt;*&lt;/font&gt;" style="ellipse;whiteSpace=wrap;html=1;aspect=fixed;" parent="zB--o1MgACli6-uQqWRJ-481" vertex="1">
          <mxGeometry x="100" y="110" width="80" height="80" as="geometry" />
        </mxCell>
        <mxCell id="zB--o1MgACli6-uQqWRJ-406" value="&lt;font style=&quot;font-size: 17px;&quot;&gt;*&lt;/font&gt;" style="ellipse;whiteSpace=wrap;html=1;aspect=fixed;" parent="zB--o1MgACli6-uQqWRJ-481" vertex="1">
          <mxGeometry x="100" y="200" width="80" height="80" as="geometry" />
        </mxCell>
        <mxCell id="zB--o1MgACli6-uQqWRJ-407" value="" style="endArrow=none;html=1;rounded=0;" parent="zB--o1MgACli6-uQqWRJ-481" edge="1">
          <mxGeometry width="50" height="50" relative="1" as="geometry">
            <mxPoint x="50" y="60" as="sourcePoint" />
            <mxPoint x="60" y="40" as="targetPoint" />
          </mxGeometry>
        </mxCell>
        <mxCell id="zB--o1MgACli6-uQqWRJ-408" value="N" style="text;html=1;align=center;verticalAlign=middle;whiteSpace=wrap;rounded=0;" parent="zB--o1MgACli6-uQqWRJ-481" vertex="1">
          <mxGeometry x="60" y="35" width="20" height="10" as="geometry" />
        </mxCell>
        <mxCell id="zB--o1MgACli6-uQqWRJ-409" value="" style="endArrow=none;html=1;rounded=0;" parent="zB--o1MgACli6-uQqWRJ-481" edge="1">
          <mxGeometry width="50" height="50" relative="1" as="geometry">
            <mxPoint x="50" y="85" as="sourcePoint" />
            <mxPoint x="60" y="65" as="targetPoint" />
          </mxGeometry>
        </mxCell>
        <mxCell id="zB--o1MgACli6-uQqWRJ-410" value="N" style="text;html=1;align=center;verticalAlign=middle;whiteSpace=wrap;rounded=0;" parent="zB--o1MgACli6-uQqWRJ-481" vertex="1">
          <mxGeometry x="60" y="60" width="20" height="10" as="geometry" />
        </mxCell>
        <mxCell id="zB--o1MgACli6-uQqWRJ-411" value="" style="endArrow=none;html=1;rounded=0;" parent="zB--o1MgACli6-uQqWRJ-481" edge="1">
          <mxGeometry width="50" height="50" relative="1" as="geometry">
            <mxPoint x="40" y="150" as="sourcePoint" />
            <mxPoint x="50" y="130" as="targetPoint" />
          </mxGeometry>
        </mxCell>
        <mxCell id="zB--o1MgACli6-uQqWRJ-412" value="N" style="text;html=1;align=center;verticalAlign=middle;whiteSpace=wrap;rounded=0;" parent="zB--o1MgACli6-uQqWRJ-481" vertex="1">
          <mxGeometry x="50" y="125" width="20" height="10" as="geometry" />
        </mxCell>
        <mxCell id="zB--o1MgACli6-uQqWRJ-413" value="" style="endArrow=none;html=1;rounded=0;" parent="zB--o1MgACli6-uQqWRJ-481" edge="1">
          <mxGeometry width="50" height="50" relative="1" as="geometry">
            <mxPoint x="40" y="175" as="sourcePoint" />
            <mxPoint x="50" y="155" as="targetPoint" />
          </mxGeometry>
        </mxCell>
        <mxCell id="zB--o1MgACli6-uQqWRJ-414" value="N" style="text;html=1;align=center;verticalAlign=middle;whiteSpace=wrap;rounded=0;" parent="zB--o1MgACli6-uQqWRJ-481" vertex="1">
          <mxGeometry x="50" y="150" width="20" height="10" as="geometry" />
        </mxCell>
        <mxCell id="zB--o1MgACli6-uQqWRJ-415" value="" style="endArrow=none;html=1;rounded=0;" parent="zB--o1MgACli6-uQqWRJ-481" edge="1">
          <mxGeometry width="50" height="50" relative="1" as="geometry">
            <mxPoint x="40" y="240" as="sourcePoint" />
            <mxPoint x="50" y="220" as="targetPoint" />
          </mxGeometry>
        </mxCell>
        <mxCell id="zB--o1MgACli6-uQqWRJ-416" value="N" style="text;html=1;align=center;verticalAlign=middle;whiteSpace=wrap;rounded=0;" parent="zB--o1MgACli6-uQqWRJ-481" vertex="1">
          <mxGeometry x="50" y="215" width="20" height="10" as="geometry" />
        </mxCell>
        <mxCell id="zB--o1MgACli6-uQqWRJ-417" value="" style="endArrow=none;html=1;rounded=0;" parent="zB--o1MgACli6-uQqWRJ-481" edge="1">
          <mxGeometry width="50" height="50" relative="1" as="geometry">
            <mxPoint x="45" y="265" as="sourcePoint" />
            <mxPoint x="55" y="245" as="targetPoint" />
          </mxGeometry>
        </mxCell>
        <mxCell id="zB--o1MgACli6-uQqWRJ-418" value="N" style="text;html=1;align=center;verticalAlign=middle;whiteSpace=wrap;rounded=0;" parent="zB--o1MgACli6-uQqWRJ-481" vertex="1">
          <mxGeometry x="55" y="240" width="20" height="10" as="geometry" />
        </mxCell>
        <mxCell id="zB--o1MgACli6-uQqWRJ-419" value="" style="endArrow=none;html=1;rounded=0;" parent="zB--o1MgACli6-uQqWRJ-481" edge="1">
          <mxGeometry width="50" height="50" relative="1" as="geometry">
            <mxPoint x="180" y="59.16999999999996" as="sourcePoint" />
            <mxPoint x="250" y="59.16999999999996" as="targetPoint" />
          </mxGeometry>
        </mxCell>
        <mxCell id="zB--o1MgACli6-uQqWRJ-420" value="" style="endArrow=none;html=1;rounded=0;" parent="zB--o1MgACli6-uQqWRJ-481" edge="1">
          <mxGeometry width="50" height="50" relative="1" as="geometry">
            <mxPoint x="200" y="70" as="sourcePoint" />
            <mxPoint x="210" y="50" as="targetPoint" />
          </mxGeometry>
        </mxCell>
        <mxCell id="zB--o1MgACli6-uQqWRJ-421" value="2N" style="text;html=1;align=center;verticalAlign=middle;whiteSpace=wrap;rounded=0;" parent="zB--o1MgACli6-uQqWRJ-481" vertex="1">
          <mxGeometry x="210" y="45" width="20" height="10" as="geometry" />
        </mxCell>
        <mxCell id="zB--o1MgACli6-uQqWRJ-422" value="" style="endArrow=none;html=1;rounded=0;entryX=0;entryY=0.5;entryDx=0;entryDy=0;" parent="zB--o1MgACli6-uQqWRJ-481" target="zB--o1MgACli6-uQqWRJ-428" edge="1">
          <mxGeometry width="50" height="50" relative="1" as="geometry">
            <mxPoint x="180" y="151.67000000000007" as="sourcePoint" />
            <mxPoint x="250" y="151.67000000000007" as="targetPoint" />
            <Array as="points">
              <mxPoint x="230" y="152" />
            </Array>
          </mxGeometry>
        </mxCell>
        <mxCell id="zB--o1MgACli6-uQqWRJ-423" value="" style="endArrow=none;html=1;rounded=0;" parent="zB--o1MgACli6-uQqWRJ-481" edge="1">
          <mxGeometry width="50" height="50" relative="1" as="geometry">
            <mxPoint x="200" y="162.5" as="sourcePoint" />
            <mxPoint x="210" y="142.5" as="targetPoint" />
          </mxGeometry>
        </mxCell>
        <mxCell id="zB--o1MgACli6-uQqWRJ-424" value="2N" style="text;html=1;align=center;verticalAlign=middle;whiteSpace=wrap;rounded=0;" parent="zB--o1MgACli6-uQqWRJ-481" vertex="1">
          <mxGeometry x="210" y="137.5" width="20" height="10" as="geometry" />
        </mxCell>
        <mxCell id="zB--o1MgACli6-uQqWRJ-425" value="" style="endArrow=none;html=1;rounded=0;" parent="zB--o1MgACli6-uQqWRJ-481" edge="1">
          <mxGeometry width="50" height="50" relative="1" as="geometry">
            <mxPoint x="180" y="241.67000000000007" as="sourcePoint" />
            <mxPoint x="300" y="240" as="targetPoint" />
          </mxGeometry>
        </mxCell>
        <mxCell id="zB--o1MgACli6-uQqWRJ-426" value="" style="endArrow=none;html=1;rounded=0;" parent="zB--o1MgACli6-uQqWRJ-481" edge="1">
          <mxGeometry width="50" height="50" relative="1" as="geometry">
            <mxPoint x="200" y="252.5" as="sourcePoint" />
            <mxPoint x="210" y="232.5" as="targetPoint" />
          </mxGeometry>
        </mxCell>
        <mxCell id="zB--o1MgACli6-uQqWRJ-427" value="2N" style="text;html=1;align=center;verticalAlign=middle;whiteSpace=wrap;rounded=0;" parent="zB--o1MgACli6-uQqWRJ-481" vertex="1">
          <mxGeometry x="210" y="227.5" width="20" height="10" as="geometry" />
        </mxCell>
        <mxCell id="zB--o1MgACli6-uQqWRJ-428" value="&lt;font style=&quot;font-size: 18px;&quot;&gt;+&lt;/font&gt;" style="ellipse;whiteSpace=wrap;html=1;aspect=fixed;" parent="zB--o1MgACli6-uQqWRJ-481" vertex="1">
          <mxGeometry x="300" y="112.5" width="80" height="80" as="geometry" />
        </mxCell>
        <mxCell id="zB--o1MgACli6-uQqWRJ-429" value="" style="endArrow=none;html=1;rounded=0;" parent="zB--o1MgACli6-uQqWRJ-481" source="zB--o1MgACli6-uQqWRJ-428" edge="1">
          <mxGeometry width="50" height="50" relative="1" as="geometry">
            <mxPoint x="240" y="130" as="sourcePoint" />
            <mxPoint x="250" y="60" as="targetPoint" />
          </mxGeometry>
        </mxCell>
        <mxCell id="zB--o1MgACli6-uQqWRJ-430" value="" style="endArrow=none;html=1;rounded=0;" parent="zB--o1MgACli6-uQqWRJ-481" edge="1">
          <mxGeometry width="50" height="50" relative="1" as="geometry">
            <mxPoint x="385" y="162.5" as="sourcePoint" />
            <mxPoint x="395" y="142.5" as="targetPoint" />
          </mxGeometry>
        </mxCell>
        <mxCell id="zB--o1MgACli6-uQqWRJ-431" value="2N" style="text;html=1;align=center;verticalAlign=middle;whiteSpace=wrap;rounded=0;" parent="zB--o1MgACli6-uQqWRJ-481" vertex="1">
          <mxGeometry x="395" y="137.5" width="20" height="10" as="geometry" />
        </mxCell>
        <mxCell id="zB--o1MgACli6-uQqWRJ-432" style="edgeStyle=orthogonalEdgeStyle;rounded=0;orthogonalLoop=1;jettySize=auto;html=1;exitX=0;exitY=0.25;exitDx=0;exitDy=0;exitPerimeter=0;endArrow=none;endFill=0;" parent="zB--o1MgACli6-uQqWRJ-481" source="zB--o1MgACli6-uQqWRJ-436" edge="1">
          <mxGeometry relative="1" as="geometry">
            <mxPoint x="460" y="67.5" as="targetPoint" />
            <Array as="points">
              <mxPoint x="460" y="62.5" />
            </Array>
          </mxGeometry>
        </mxCell>
        <mxCell id="zB--o1MgACli6-uQqWRJ-433" style="edgeStyle=orthogonalEdgeStyle;rounded=0;orthogonalLoop=1;jettySize=auto;html=1;exitX=0;exitY=0.75;exitDx=0;exitDy=0;exitPerimeter=0;endArrow=none;endFill=0;" parent="zB--o1MgACli6-uQqWRJ-481" source="zB--o1MgACli6-uQqWRJ-436" edge="1">
          <mxGeometry relative="1" as="geometry">
            <mxPoint x="460" y="92.54761904761904" as="targetPoint" />
          </mxGeometry>
        </mxCell>
        <mxCell id="zB--o1MgACli6-uQqWRJ-434" style="edgeStyle=orthogonalEdgeStyle;rounded=0;orthogonalLoop=1;jettySize=auto;html=1;entryX=0;entryY=0.5;entryDx=0;entryDy=0;exitX=1;exitY=0.5;exitDx=0;exitDy=0;exitPerimeter=0;" parent="zB--o1MgACli6-uQqWRJ-481" source="zB--o1MgACli6-uQqWRJ-436" target="zB--o1MgACli6-uQqWRJ-442" edge="1">
          <mxGeometry relative="1" as="geometry">
            <Array as="points">
              <mxPoint x="620" y="77.5" />
            </Array>
          </mxGeometry>
        </mxCell>
        <mxCell id="zB--o1MgACli6-uQqWRJ-435" style="edgeStyle=orthogonalEdgeStyle;rounded=0;orthogonalLoop=1;jettySize=auto;html=1;endArrow=none;endFill=0;" parent="zB--o1MgACli6-uQqWRJ-481" edge="1">
          <mxGeometry relative="1" as="geometry">
            <mxPoint x="690" y="77.5" as="targetPoint" />
            <mxPoint x="620" y="77.52173913043475" as="sourcePoint" />
          </mxGeometry>
        </mxCell>
        <mxCell id="zB--o1MgACli6-uQqWRJ-436" value="" style="verticalLabelPosition=bottom;shadow=0;dashed=0;align=center;html=1;verticalAlign=top;shape=mxgraph.electrical.logic_gates.logic_gate;operation=or;" parent="zB--o1MgACli6-uQqWRJ-481" vertex="1">
          <mxGeometry x="510" y="47.5" width="100" height="60" as="geometry" />
        </mxCell>
        <mxCell id="zB--o1MgACli6-uQqWRJ-437" value="" style="endArrow=none;html=1;rounded=0;" parent="zB--o1MgACli6-uQqWRJ-481" edge="1">
          <mxGeometry width="50" height="50" relative="1" as="geometry">
            <mxPoint x="460" y="142.5" as="sourcePoint" />
            <mxPoint x="460" y="62.5" as="targetPoint" />
          </mxGeometry>
        </mxCell>
        <mxCell id="zB--o1MgACli6-uQqWRJ-438" value="&lt;div&gt;i_sum(2^N)&lt;/div&gt;" style="text;html=1;align=center;verticalAlign=middle;whiteSpace=wrap;rounded=0;" parent="zB--o1MgACli6-uQqWRJ-481" vertex="1">
          <mxGeometry x="475" y="47.5" width="10" height="10" as="geometry" />
        </mxCell>
        <mxCell id="zB--o1MgACli6-uQqWRJ-439" value="&lt;div&gt;i_sum(2^N-1)&lt;/div&gt;" style="text;html=1;align=center;verticalAlign=middle;whiteSpace=wrap;rounded=0;" parent="zB--o1MgACli6-uQqWRJ-481" vertex="1">
          <mxGeometry x="485" y="77.5" width="10" height="10" as="geometry" />
        </mxCell>
        <mxCell id="zB--o1MgACli6-uQqWRJ-440" value="" style="endArrow=none;html=1;rounded=0;" parent="zB--o1MgACli6-uQqWRJ-481" edge="1">
          <mxGeometry width="50" height="50" relative="1" as="geometry">
            <mxPoint x="460" y="222.5" as="sourcePoint" />
            <mxPoint x="460" y="142.5" as="targetPoint" />
          </mxGeometry>
        </mxCell>
        <mxCell id="zB--o1MgACli6-uQqWRJ-441" value="" style="group" parent="zB--o1MgACli6-uQqWRJ-481" vertex="1" connectable="0">
          <mxGeometry x="590" y="132.5" width="60" height="120" as="geometry" />
        </mxCell>
        <mxCell id="zB--o1MgACli6-uQqWRJ-442" value="" style="shape=trapezoid;perimeter=trapezoidPerimeter;whiteSpace=wrap;html=1;fixedSize=1;rotation=90;" parent="zB--o1MgACli6-uQqWRJ-441" vertex="1">
          <mxGeometry x="-30" y="30" width="120" height="60" as="geometry" />
        </mxCell>
        <mxCell id="zB--o1MgACli6-uQqWRJ-443" value="MUX" style="text;html=1;align=center;verticalAlign=middle;whiteSpace=wrap;rounded=0;" parent="zB--o1MgACli6-uQqWRJ-441" vertex="1">
          <mxGeometry y="45" width="60" height="30" as="geometry" />
        </mxCell>
        <mxCell id="zB--o1MgACli6-uQqWRJ-444" value="" style="endArrow=none;html=1;rounded=0;" parent="zB--o1MgACli6-uQqWRJ-481" edge="1">
          <mxGeometry width="50" height="50" relative="1" as="geometry">
            <mxPoint x="460" y="222.5" as="sourcePoint" />
            <mxPoint x="590" y="222.5" as="targetPoint" />
          </mxGeometry>
        </mxCell>
        <mxCell id="zB--o1MgACli6-uQqWRJ-445" value="&lt;div&gt;i_sum(2^N downto N)&lt;/div&gt;" style="text;html=1;align=center;verticalAlign=middle;whiteSpace=wrap;rounded=0;" parent="zB--o1MgACli6-uQqWRJ-481" vertex="1">
          <mxGeometry x="460" y="212.5" width="130" height="10" as="geometry" />
        </mxCell>
        <mxCell id="zB--o1MgACli6-uQqWRJ-446" value="(others =&amp;gt; &#39;1&#39;)" style="text;html=1;align=center;verticalAlign=middle;whiteSpace=wrap;rounded=0;" parent="zB--o1MgACli6-uQqWRJ-481" vertex="1">
          <mxGeometry x="490" y="132.5" width="80" height="30" as="geometry" />
        </mxCell>
        <mxCell id="zB--o1MgACli6-uQqWRJ-447" value="" style="endArrow=none;html=1;rounded=0;" parent="zB--o1MgACli6-uQqWRJ-481" edge="1">
          <mxGeometry width="50" height="50" relative="1" as="geometry">
            <mxPoint x="530" y="157.5" as="sourcePoint" />
            <mxPoint x="590" y="157.5" as="targetPoint" />
          </mxGeometry>
        </mxCell>
        <mxCell id="zB--o1MgACli6-uQqWRJ-448" style="edgeStyle=orthogonalEdgeStyle;rounded=0;orthogonalLoop=1;jettySize=auto;html=1;endArrow=none;endFill=0;exitX=0.944;exitY=0.637;exitDx=0;exitDy=0;exitPerimeter=0;" parent="zB--o1MgACli6-uQqWRJ-481" source="zB--o1MgACli6-uQqWRJ-468" edge="1">
          <mxGeometry relative="1" as="geometry">
            <mxPoint x="830" y="78" as="targetPoint" />
            <mxPoint x="725" y="77.5" as="sourcePoint" />
            <Array as="points">
              <mxPoint x="708" y="78" />
            </Array>
          </mxGeometry>
        </mxCell>
        <mxCell id="zB--o1MgACli6-uQqWRJ-449" value="" style="endArrow=none;html=1;rounded=0;" parent="zB--o1MgACli6-uQqWRJ-481" edge="1">
          <mxGeometry width="50" height="50" relative="1" as="geometry">
            <mxPoint x="595" y="85" as="sourcePoint" />
            <mxPoint x="605" y="65" as="targetPoint" />
          </mxGeometry>
        </mxCell>
        <mxCell id="zB--o1MgACli6-uQqWRJ-450" value="1" style="text;html=1;align=center;verticalAlign=middle;whiteSpace=wrap;rounded=0;" parent="zB--o1MgACli6-uQqWRJ-481" vertex="1">
          <mxGeometry x="605" y="60" width="20" height="10" as="geometry" />
        </mxCell>
        <mxCell id="zB--o1MgACli6-uQqWRJ-451" value="" style="endArrow=none;html=1;rounded=0;" parent="zB--o1MgACli6-uQqWRJ-481" edge="1">
          <mxGeometry width="50" height="50" relative="1" as="geometry">
            <mxPoint x="740" y="85" as="sourcePoint" />
            <mxPoint x="750" y="65" as="targetPoint" />
          </mxGeometry>
        </mxCell>
        <mxCell id="zB--o1MgACli6-uQqWRJ-452" value="1" style="text;html=1;align=center;verticalAlign=middle;whiteSpace=wrap;rounded=0;" parent="zB--o1MgACli6-uQqWRJ-481" vertex="1">
          <mxGeometry x="750" y="60" width="20" height="10" as="geometry" />
        </mxCell>
        <mxCell id="zB--o1MgACli6-uQqWRJ-453" value="overflow" style="text;html=1;align=center;verticalAlign=middle;resizable=0;points=[];autosize=1;strokeColor=none;fillColor=none;" parent="zB--o1MgACli6-uQqWRJ-481" vertex="1">
          <mxGeometry x="755" y="53" width="70" height="30" as="geometry" />
        </mxCell>
        <mxCell id="zB--o1MgACli6-uQqWRJ-454" value="" style="endArrow=none;html=1;rounded=0;" parent="zB--o1MgACli6-uQqWRJ-481" edge="1">
          <mxGeometry width="50" height="50" relative="1" as="geometry">
            <mxPoint x="660" y="205" as="sourcePoint" />
            <mxPoint x="670" y="185" as="targetPoint" />
          </mxGeometry>
        </mxCell>
        <mxCell id="zB--o1MgACli6-uQqWRJ-455" value="N" style="text;html=1;align=center;verticalAlign=middle;whiteSpace=wrap;rounded=0;" parent="zB--o1MgACli6-uQqWRJ-481" vertex="1">
          <mxGeometry x="670" y="180" width="20" height="10" as="geometry" />
        </mxCell>
        <mxCell id="zB--o1MgACli6-uQqWRJ-456" style="edgeStyle=orthogonalEdgeStyle;rounded=0;orthogonalLoop=1;jettySize=auto;html=1;endArrow=none;endFill=0;" parent="zB--o1MgACli6-uQqWRJ-481" source="zB--o1MgACli6-uQqWRJ-465" edge="1">
          <mxGeometry relative="1" as="geometry">
            <mxPoint x="830" y="190" as="targetPoint" />
            <mxPoint x="785" y="192.5" as="sourcePoint" />
            <Array as="points">
              <mxPoint x="830" y="190" />
            </Array>
          </mxGeometry>
        </mxCell>
        <mxCell id="zB--o1MgACli6-uQqWRJ-457" value="y" style="text;html=1;align=center;verticalAlign=middle;resizable=0;points=[];autosize=1;strokeColor=none;fillColor=none;" parent="zB--o1MgACli6-uQqWRJ-481" vertex="1">
          <mxGeometry x="790" y="162.5" width="30" height="30" as="geometry" />
        </mxCell>
        <mxCell id="zB--o1MgACli6-uQqWRJ-458" style="edgeStyle=orthogonalEdgeStyle;rounded=0;orthogonalLoop=1;jettySize=auto;html=1;entryX=0;entryY=0.5;entryDx=0;entryDy=0;endArrow=none;endFill=0;" parent="zB--o1MgACli6-uQqWRJ-481" source="zB--o1MgACli6-uQqWRJ-443" edge="1">
          <mxGeometry relative="1" as="geometry">
            <mxPoint x="720" y="192.5" as="targetPoint" />
          </mxGeometry>
        </mxCell>
        <mxCell id="zB--o1MgACli6-uQqWRJ-459" style="edgeStyle=orthogonalEdgeStyle;rounded=0;orthogonalLoop=1;jettySize=auto;html=1;endArrow=none;endFill=0;exitX=1;exitY=0.5;exitDx=0;exitDy=0;" parent="zB--o1MgACli6-uQqWRJ-481" source="zB--o1MgACli6-uQqWRJ-428" edge="1">
          <mxGeometry relative="1" as="geometry">
            <mxPoint x="460" y="146.5" as="targetPoint" />
            <mxPoint x="390" y="153.5" as="sourcePoint" />
            <Array as="points">
              <mxPoint x="380" y="154" />
              <mxPoint x="460" y="154" />
            </Array>
          </mxGeometry>
        </mxCell>
        <mxCell id="zB--o1MgACli6-uQqWRJ-460" value="i_sum" style="text;html=1;align=center;verticalAlign=middle;resizable=0;points=[];autosize=1;strokeColor=none;fillColor=none;" parent="zB--o1MgACli6-uQqWRJ-481" vertex="1">
          <mxGeometry x="405" y="127.5" width="60" height="30" as="geometry" />
        </mxCell>
        <mxCell id="zB--o1MgACli6-uQqWRJ-461" value="1" style="text;html=1;align=center;verticalAlign=middle;whiteSpace=wrap;rounded=0;" parent="zB--o1MgACli6-uQqWRJ-481" vertex="1">
          <mxGeometry x="165" y="297.25" width="20" height="10" as="geometry" />
        </mxCell>
        <mxCell id="zB--o1MgACli6-uQqWRJ-462" value="" style="endArrow=none;html=1;rounded=0;" parent="zB--o1MgACli6-uQqWRJ-481" edge="1">
          <mxGeometry width="50" height="50" relative="1" as="geometry">
            <mxPoint x="155" y="322.25" as="sourcePoint" />
            <mxPoint x="165" y="302.25" as="targetPoint" />
          </mxGeometry>
        </mxCell>
        <mxCell id="zB--o1MgACli6-uQqWRJ-463" value="" style="endArrow=none;html=1;rounded=0;entryX=0.24;entryY=0.973;entryDx=0;entryDy=0;entryPerimeter=0;" parent="zB--o1MgACli6-uQqWRJ-481" target="zB--o1MgACli6-uQqWRJ-428" edge="1">
          <mxGeometry width="50" height="50" relative="1" as="geometry">
            <mxPoint x="300" y="240" as="sourcePoint" />
            <mxPoint x="350" y="190" as="targetPoint" />
          </mxGeometry>
        </mxCell>
        <mxCell id="zB--o1MgACli6-uQqWRJ-464" value="" style="group" parent="zB--o1MgACli6-uQqWRJ-481" vertex="1" connectable="0">
          <mxGeometry x="690" y="160" width="30" height="62" as="geometry" />
        </mxCell>
        <mxCell id="zB--o1MgACli6-uQqWRJ-465" value="" style="rounded=0;whiteSpace=wrap;html=1;" parent="zB--o1MgACli6-uQqWRJ-464" vertex="1">
          <mxGeometry width="30" height="62" as="geometry" />
        </mxCell>
        <mxCell id="zB--o1MgACli6-uQqWRJ-466" value="" style="triangle;whiteSpace=wrap;html=1;rotation=90;" parent="zB--o1MgACli6-uQqWRJ-464" vertex="1">
          <mxGeometry x="3" width="24" height="29.176470588235297" as="geometry" />
        </mxCell>
        <mxCell id="zB--o1MgACli6-uQqWRJ-467" value="" style="group" parent="zB--o1MgACli6-uQqWRJ-481" vertex="1" connectable="0">
          <mxGeometry x="690" y="40" width="30" height="62" as="geometry" />
        </mxCell>
        <mxCell id="zB--o1MgACli6-uQqWRJ-468" value="" style="rounded=0;whiteSpace=wrap;html=1;" parent="zB--o1MgACli6-uQqWRJ-467" vertex="1">
          <mxGeometry width="30" height="62" as="geometry" />
        </mxCell>
        <mxCell id="zB--o1MgACli6-uQqWRJ-469" value="" style="triangle;whiteSpace=wrap;html=1;rotation=90;" parent="zB--o1MgACli6-uQqWRJ-467" vertex="1">
          <mxGeometry x="3" width="24" height="29.176470588235297" as="geometry" />
        </mxCell>
        <mxCell id="zB--o1MgACli6-uQqWRJ-470" value="" style="group" parent="zB--o1MgACli6-uQqWRJ-481" vertex="1" connectable="0">
          <mxGeometry x="240" y="121.5" width="30" height="62" as="geometry" />
        </mxCell>
        <mxCell id="zB--o1MgACli6-uQqWRJ-471" value="" style="rounded=0;whiteSpace=wrap;html=1;" parent="zB--o1MgACli6-uQqWRJ-470" vertex="1">
          <mxGeometry width="30" height="62" as="geometry" />
        </mxCell>
        <mxCell id="zB--o1MgACli6-uQqWRJ-472" value="" style="triangle;whiteSpace=wrap;html=1;rotation=90;" parent="zB--o1MgACli6-uQqWRJ-470" vertex="1">
          <mxGeometry x="3" width="24" height="29.176470588235297" as="geometry" />
        </mxCell>
        <mxCell id="zB--o1MgACli6-uQqWRJ-473" value="" style="group" parent="zB--o1MgACli6-uQqWRJ-481" vertex="1" connectable="0">
          <mxGeometry x="240" y="30" width="30" height="62" as="geometry" />
        </mxCell>
        <mxCell id="zB--o1MgACli6-uQqWRJ-474" value="" style="rounded=0;whiteSpace=wrap;html=1;" parent="zB--o1MgACli6-uQqWRJ-473" vertex="1">
          <mxGeometry width="30" height="62" as="geometry" />
        </mxCell>
        <mxCell id="zB--o1MgACli6-uQqWRJ-475" value="" style="triangle;whiteSpace=wrap;html=1;rotation=90;" parent="zB--o1MgACli6-uQqWRJ-473" vertex="1">
          <mxGeometry x="3" width="24" height="29.176470588235297" as="geometry" />
        </mxCell>
        <mxCell id="zB--o1MgACli6-uQqWRJ-477" value="" style="group" parent="zB--o1MgACli6-uQqWRJ-481" vertex="1" connectable="0">
          <mxGeometry x="240" y="280" width="30" height="62" as="geometry" />
        </mxCell>
        <mxCell id="zB--o1MgACli6-uQqWRJ-478" value="" style="rounded=0;whiteSpace=wrap;html=1;" parent="zB--o1MgACli6-uQqWRJ-477" vertex="1">
          <mxGeometry width="30" height="62" as="geometry" />
        </mxCell>
        <mxCell id="zB--o1MgACli6-uQqWRJ-479" value="" style="triangle;whiteSpace=wrap;html=1;rotation=90;" parent="zB--o1MgACli6-uQqWRJ-477" vertex="1">
          <mxGeometry x="3" width="24" height="29.176470588235297" as="geometry" />
        </mxCell>
      </root>
    </mxGraphModel>
  </diagram>
</mxfile>
